<svg class="img-fluid" id="outputsvg" xmlns="http://www.w3.org/2000/svg" style="transform: matrix(0.856831, 0, 0, 0.856831, 0, 0); transform-origin: 50% 50%; cursor: move; max-height: 348.82px; transition: transform 200ms ease-in-out;" width="1833" height="1568" viewBox="0 0 18330 15680"><g id="l693ZeMTNZwkanSLWmcwLbn" fill="rgb(254,70,0)" style="transform: none;"><g><path id="pUxqDJzLf" d="M12380 15393 c-116 -13 -359 -60 -505 -98 -279 -72 -469 -138 -1205 -415 -1175 -443 -2149 -737 -2730 -826 -178 -28 -443 -25 -585 5 -60 13 -130 26 -155 29 -31 3 -56 14 -78 33 -39 35 -83 38 -129 9 -38 -23 -49 -57 -58 -185 -8 -119 -24 -326 -30 -395 -3 -30 -12 -137 -20 -237 -8 -101 -22 -265 -30 -365 -8 -101 -17 -208 -20 -238 -3 -30 -14 -165 -25 -300 -11 -135 -22 -272 -25 -305 -3 -33 -7 -85 -10 -115 -3 -30 -7 -82 -10 -115 -4 -51 -15 -176 -50 -615 -9 -106 -16 -182 -21 -235 -2 -27 -13 -160 -24 -295 -11 -135 -22 -272 -25 -305 -3 -33 -7 -85 -10 -115 -3 -30 -7 -82 -10 -115 -3 -33 -19 -226 -35 -430 -28 -348 -38 -457 -43 -461 -1 -2 -38 19 -82 45 -44 26 -237 142 -430 256 -649 386 -969 577 -1275 760 -168 100 -462 275 -655 390 -192 114 -447 266 -565 338 -118 72 -231 139 -252 149 -38 20 -40 20 -713 -47 -27 -2 -151 -14 -275 -25 -594 -54 -574 -51 -607 -114 -20 -39 -908 -1120 -1008 -1228 -61 -66 -66 -24 70 -618 105 -462 184 -811 225 -995 41 -188 48 -212 74 -254 18 -27 134 -110 490 -345 l466 -310 0 -240 c0 -133 3 -463 7 -734 5 -391 3 -500 -7 -532 -23 -69 -6 -89 274 -345 55 -49 104 -95 110 -100 6 -6 121 -112 256 -235 135 -123 272 -249 305 -280 33 -32 121 -112 195 -180 74 -68 169 -155 210 -195 41 -39 87 -80 102 -89 25 -16 147 -42 805 -172 104 -20 144 -32 147 -43 3 -9 39 -189 81 -401 42 -212 126 -631 186 -932 60 -301 109 -556 109 -565 0 -36 49 -121 91 -160 24 -22 159 -139 299 -260 619 -531 714 -614 874 -752 233 -202 221 -193 274 -198 26 -3 423 -130 884 -284 460 -153 850 -279 868 -279 42 0 84 23 98 54 9 20 52 46 184 110 95 46 317 155 493 241 176 87 406 199 510 250 105 51 332 162 505 247 258 127 322 154 348 150 65 -9 83 14 299 375 111 186 217 363 236 394 l34 55 164 -17 c239 -25 534 -55 869 -89 306 -31 481 -50 515 -56 11 -2 70 -7 132 -10 144 -9 157 -3 236 99 83 107 94 122 387 497 139 179 276 355 304 391 28 36 137 174 241 307 198 252 225 292 225 329 0 12 -36 127 -81 255 -173 500 -294 853 -375 1093 -46 138 -92 265 -102 284 -17 34 -63 61 -102 61 -19 0 -246 132 -785 455 -121 72 -416 248 -655 390 -239 142 -556 331 -705 420 -148 89 -433 258 -632 376 -199 118 -361 217 -360 221 2 6 1195 746 1627 1010 41 25 104 64 140 86 36 23 83 52 105 65 22 13 78 48 125 77 47 29 119 73 160 98 41 25 98 60 125 77 91 58 1517 937 1645 1013 133 80 190 125 190 153 0 9 11 41 25 71 15 33 25 71 25 101 0 52 -35 220 -82 392 -17 61 -36 133 -43 160 -17 68 -50 186 -92 330 -19 66 -59 206 -90 310 -30 105 -70 244 -90 310 -97 330 -141 481 -172 593 -10 37 -55 195 -101 352 -76 267 -146 513 -191 675 -80 292 -152 551 -179 645 -10 36 -39 137 -64 225 -98 348 -178 633 -196 695 -44 153 -100 382 -115 475 -29 178 -54 225 -137 259 -36 15 -199 20 -298 9z m154 -285 c37 -172 62 -279 87 -371 17 -62 37 -137 45 -167 8 -30 19 -68 24 -85 6 -16 33 -111 61 -210 28 -99 59 -209 69 -245 20 -71 96 -341 136 -485 14 -49 32 -112 40 -140 7 -27 25 -93 40 -145 68 -251 288 -1028 387 -1370 25 -85 66 -225 90 -310 25 -85 61 -209 80 -275 199 -678 350 -1232 340 -1247 -2 -5 -19 -8 -37 -8 -71 0 -420 -80 -721 -165 -352 -99 -552 -157 -760 -220 -49 -15 -117 -35 -150 -45 -33 -10 -100 -30 -150 -45 -49 -15 -110 -33 -135 -40 -25 -7 -84 -25 -132 -39 -213 -63 -271 -80 -403 -117 -184 -51 -655 -172 -775 -200 -52 -11 -133 -30 -180 -41 -158 -36 -313 -68 -860 -178 -300 -61 -592 -121 -650 -134 -58 -13 -108 -21 -111 -18 -4 4 -16 50 -28 102 -26 111 -92 324 -190 610 -246 720 -311 913 -390 1150 -49 146 -114 346 -146 445 -31 99 -63 198 -70 220 -8 22 -25 78 -39 125 -14 47 -42 139 -62 205 -20 66 -43 145 -51 175 -8 30 -39 138 -68 240 -68 239 -119 429 -216 798 -16 61 -43 165 -60 230 -113 435 -168 656 -165 660 2 1 58 -2 125 -8 287 -25 638 30 1271 199 454 121 1337 418 2030 681 74 28 185 70 245 92 61 22 139 52 175 65 479 179 845 279 1165 317 66 7 123 14 127 15 4 1 10 -9 12 -21z m-5325 -1778 c123 -485 232 -898 286 -1090 13 -47 45 -159 70 -250 99 -354 217 -745 285 -950 11 -30 53 -158 94 -285 71 -218 299 -892 400 -1185 166 -478 219 -655 245 -820 24 -146 42 -186 101 -219 59 -33 103 -31 275 8 139 33 520 113 625 132 216 39 711 143 1095 229 118 27 484 118 589 147 208 57 416 116 491 138 44 13 211 63 370 110 412 122 453 134 520 155 33 10 76 23 95 28 19 6 121 35 225 65 348 101 786 213 769 197 -7 -6 -1165 -724 -1699 -1051 -49 -31 -139 -86 -200 -124 -60 -37 -144 -88 -185 -113 -41 -25 -97 -59 -125 -77 -27 -17 -104 -65 -170 -105 -66 -40 -142 -88 -170 -105 -27 -18 -333 -206 -680 -420 -346 -213 -637 -394 -645 -401 -14 -11 -36 -2 -155 70 -77 45 -297 176 -490 291 -192 115 -487 290 -655 390 -168 100 -474 282 -680 405 -206 123 -485 289 -620 370 -135 81 -305 181 -378 224 -72 43 -134 81 -136 84 -1 4 3 75 10 157 7 83 16 186 19 230 3 44 8 100 10 125 11 117 17 187 40 475 14 171 27 333 30 360 2 28 7 77 10 110 3 33 19 224 35 425 16 201 32 390 35 420 3 30 30 357 60 725 31 369 57 693 60 720 2 28 7 79 10 115 3 36 14 171 25 300 11 129 20 249 20 265 1 55 17 6 89 -275z m-4249 -2316 c0 -7 -55 -102 -220 -379 -75 -126 -226 -381 -335 -565 -188 -317 -349 -589 -703 -1185 -383 -647 -467 -784 -474 -777 -4 4 -25 89 -48 189 l-40 182 73 123 c41 68 145 245 232 393 154 262 278 473 543 923 71 119 200 339 287 487 87 149 193 329 236 401 44 73 79 136 79 140 1 31 24 37 186 54 93 10 172 18 177 19 4 0 7 -2 7 -5z m349 -36 c42 -22 93 -52 114 -65 l38 -24 -27 -47 c-29 -51 -752 -1282 -970 -1652 -72 -124 -273 -466 -446 -760 -173 -294 -328 -556 -344 -582 l-29 -47 -118 77 c-78 51 -116 82 -114 92 2 8 205 355 452 770 246 415 556 937 688 1160 132 223 308 520 391 660 84 140 179 301 211 357 33 57 64 103 69 103 5 0 43 -19 85 -42z m-962 -25 c-9 -17 -370 -630 -572 -973 -161 -273 -340 -578 -546 -927 -87 -149 -157 -257 -160 -250 -4 7 -16 55 -28 107 -11 52 -29 133 -40 180 l-20 84 143 246 c174 295 359 612 526 895 68 116 177 300 241 410 l117 200 153 16 c195 21 191 20 186 12z m1413 -244 c55 -33 100 -65 100 -70 0 -6 -72 -130 -159 -277 -550 -925 -869 -1460 -1096 -1842 -142 -239 -330 -555 -417 -703 -104 -173 -164 -265 -171 -260 -7 3 -51 33 -100 65 -81 55 -87 60 -76 81 12 24 117 202 322 552 71 121 189 321 262 445 72 124 193 329 267 455 75 127 187 318 250 425 63 107 186 317 273 465 87 149 199 340 250 425 51 85 111 188 134 228 23 39 46 72 51 72 5 0 54 -27 110 -61z m417 -246 c62 -38 113 -71 113 -75 0 -4 -73 -130 -162 -280 -89 -150 -177 -300 -196 -333 -19 -33 -90 -152 -157 -265 -114 -192 -236 -399 -605 -1025 -84 -143 -208 -352 -275 -465 -67 -113 -213 -360 -325 -550 -112 -190 -234 -397 -271 -460 l-69 -115 -1 110 c0 61 -2 141 -5 179 -2 47 1 77 11 97 21 40 19 92 -6 123 -11 14 -18 29 -16 33 7 13 512 864 687 1158 92 154 254 426 360 605 106 179 268 451 360 605 92 154 226 380 299 503 72 122 135 222 139 222 4 0 57 -30 119 -67z m-2753 -105 c-16 -31 -155 -269 -397 -678 -60 -102 -111 -186 -112 -188 -4 -5 -45 166 -45 188 0 13 111 157 283 366 155 189 283 344 285 344 1 0 -5 -15 -14 -32z m3218 -173 c54 -31 96 -60 94 -64 -8 -16 -1270 -2125 -2099 -3508 -215 -359 -395 -653 -399 -653 -4 0 -8 124 -8 275 l0 275 38 38 c20 20 52 66 71 102 19 36 96 169 171 295 75 127 221 374 325 550 103 176 243 412 310 525 120 202 282 477 570 965 192 326 443 749 623 1053 l144 243 31 -19 c18 -11 76 -45 129 -77z m373 -224 c44 -26 79 -52 78 -57 -2 -9 -85 -156 -258 -454 -43 -74 -128 -223 -190 -330 -158 -274 -319 -552 -410 -710 -43 -74 -120 -208 -172 -297 -114 -199 -264 -459 -353 -613 -63 -108 -171 -297 -392 -680 -52 -91 -130 -226 -173 -300 -43 -74 -120 -207 -170 -295 -51 -88 -141 -243 -200 -345 -59 -102 -132 -229 -162 -282 -30 -54 -58 -98 -61 -98 -4 0 -54 44 -111 98 l-104 98 20 30 c11 16 182 299 379 629 337 565 653 1093 1734 2898 249 416 456 757 459 757 3 0 42 -22 86 -49z m395 -233 c66 -40 120 -77 120 -83 0 -5 -16 -37 -36 -70 -20 -33 -69 -116 -109 -185 -78 -136 -279 -482 -425 -735 -51 -88 -135 -232 -185 -320 -51 -88 -132 -227 -180 -310 -81 -139 -225 -388 -385 -665 -148 -255 -309 -533 -388 -670 -46 -80 -135 -233 -197 -340 -62 -107 -151 -260 -197 -340 -157 -271 -321 -555 -405 -700 -46 -80 -87 -148 -91 -152 -4 -3 -54 38 -112 91 l-104 98 49 84 c56 96 141 242 277 479 120 209 312 541 398 690 36 63 95 165 129 225 35 61 96 166 136 235 40 69 117 202 170 295 158 273 282 489 375 650 48 83 116 200 150 260 35 61 94 162 130 225 37 63 110 189 162 280 52 91 130 226 173 300 179 309 312 541 364 633 30 53 57 97 58 97 2 0 57 -33 123 -72z m472 -281 l87 -51 -21 -36 c-12 -19 -67 -114 -123 -210 -56 -96 -143 -247 -194 -335 -52 -88 -152 -261 -224 -385 -72 -124 -169 -290 -215 -370 -46 -80 -135 -233 -197 -340 -62 -107 -161 -278 -221 -380 -119 -205 -220 -377 -389 -670 -112 -193 -154 -266 -415 -715 -73 -126 -170 -293 -215 -370 -45 -77 -123 -212 -174 -300 -52 -88 -134 -231 -184 -317 -49 -87 -93 -158 -96 -158 -3 1 -51 43 -105 94 l-100 93 25 49 c13 27 60 110 104 184 43 74 118 203 166 285 47 83 135 234 195 337 179 308 286 493 390 673 53 94 143 249 199 345 56 96 143 247 194 335 51 88 136 235 190 326 53 92 143 248 201 348 58 100 144 248 191 329 47 81 132 228 189 327 97 169 171 297 401 692 52 89 113 196 137 238 l43 76 37 -22 c20 -12 76 -44 124 -72z m368 -219 c49 -29 90 -57 90 -62 0 -11 -43 -86 -618 -1086 -52 -91 -121 -210 -152 -265 -31 -55 -209 -365 -394 -690 -340 -592 -444 -776 -521 -915 -23 -41 -86 -156 -142 -255 -112 -201 -309 -560 -388 -705 -28 -52 -64 -117 -79 -145 -148 -264 -186 -331 -232 -405 -29 -47 -70 -102 -92 -123 l-40 -39 -55 12 c-41 10 -67 24 -108 60 l-53 47 49 84 c57 99 173 297 330 569 158 274 263 454 395 680 62 107 163 281 224 385 60 105 147 255 194 335 46 80 135 233 197 340 62 107 159 274 215 370 56 96 144 247 195 335 51 88 143 248 205 355 63 107 150 258 195 335 45 77 142 244 215 370 74 127 158 273 188 325 69 121 81 140 88 140 3 0 46 -24 94 -52z m429 -256 l131 -79 -29 -39 c-93 -126 -1002 -1650 -1823 -3054 -133 -228 -345 -602 -453 -800 -38 -69 -83 -150 -102 -181 -18 -31 -33 -59 -33 -62 0 -4 -29 -50 -64 -104 -57 -88 -108 -175 -118 -202 -3 -9 -232 30 -244 42 -2 2 22 46 55 98 62 99 156 267 418 744 33 61 111 202 173 315 62 113 130 234 150 270 20 36 61 108 90 160 62 112 111 198 545 960 181 316 358 627 395 690 37 63 103 178 147 255 158 278 300 523 511 890 100 173 101 175 112 175 5 0 67 -35 139 -78z m458 -273 c76 -45 226 -134 333 -199 107 -64 391 -233 630 -375 239 -142 534 -318 655 -390 121 -73 378 -226 570 -340 193 -114 487 -290 655 -390 168 -100 474 -282 680 -405 410 -244 793 -472 1225 -730 578 -344 974 -580 1100 -654 72 -41 135 -79 142 -83 7 -5 50 -120 97 -258 80 -235 339 -989 385 -1119 12 -33 21 -65 21 -72 0 -7 -64 -95 -143 -196 -78 -100 -232 -298 -342 -438 -109 -140 -235 -302 -280 -360 -191 -248 -339 -435 -347 -441 -4 -3 -61 0 -126 7 -64 7 -193 20 -287 29 -93 9 -188 18 -210 20 -22 3 -107 12 -190 20 -82 8 -170 17 -195 20 -25 2 -92 9 -150 15 -58 6 -123 12 -145 15 -22 2 -112 11 -200 19 -88 9 -183 23 -212 32 -65 21 -114 13 -145 -24 -21 -25 -132 -207 -374 -617 l-89 -150 -310 -155 c-171 -85 -436 -217 -590 -292 -154 -75 -455 -223 -670 -328 -530 -260 -591 -290 -602 -290 -31 0 -1686 561 -1709 579 -31 24 -129 108 -189 162 -22 20 -123 107 -225 194 -102 87 -198 169 -215 184 -16 15 -156 135 -310 268 -154 132 -300 258 -324 279 l-43 39 -133 665 c-73 366 -163 816 -199 1000 -37 184 -71 352 -77 372 -13 51 -59 78 -133 78 -32 0 -56 4 -56 10 0 6 37 70 83 143 46 73 109 182 141 242 106 201 344 622 579 1025 275 472 879 1492 1315 2220 249 416 457 750 468 750 2 0 65 -36 141 -81z"/><path id="p10TQytqbb" d="M11948 14894 c-50 -33 -63 -102 -27 -148 24 -30 84 -49 211 -66 97 -13 138 -36 138 -75 0 -20 -8 -26 -42 -35 -119 -33 -133 -157 -23 -209 107 -50 180 -157 139 -202 -9 -10 -25 -19 -34 -19 -36 0 -90 -31 -105 -60 -60 -116 73 -194 213 -124 92 46 152 143 152 245 0 57 -37 144 -86 204 l-43 54 21 48 c30 68 29 136 -5 205 -49 101 -121 146 -269 172 -152 27 -210 29 -240 10z"/><path id="pkxDzV27T" d="M11492 14727 c-27 -16 -47 -43 -55 -78 -7 -27 41 -453 68 -612 32 -189 114 -257 249 -207 147 56 246 178 246 304 0 79 -42 168 -103 222 -50 44 -155 94 -196 94 -35 0 -37 5 -46 109 -11 119 -41 167 -106 177 -19 2 -44 -2 -57 -9z m272 -521 c48 -44 50 -94 7 -137 -55 -54 -66 -40 -77 94 -7 73 -6 77 14 77 11 0 37 -15 56 -34z"/><path id="px9qIAoeH" d="M11195 14557 c-36 -36 -48 -87 -69 -296 l-11 -115 -49 87 c-60 106 -103 153 -156 167 -33 9 -45 8 -78 -9 -64 -33 -89 -88 -100 -223 l-7 -83 -44 80 c-84 152 -122 207 -157 221 -49 20 -70 17 -106 -15 -52 -46 -46 -92 23 -211 31 -52 93 -166 138 -252 46 -86 98 -173 117 -192 55 -57 127 -61 177 -10 35 35 47 79 54 202 3 56 9 102 12 102 3 0 26 -37 50 -81 86 -154 178 -193 264 -111 40 38 55 102 72 306 9 100 22 223 30 275 17 115 7 153 -49 176 -52 22 -75 18 -111 -18z"/><path id="pzr06j6sM" d="M11597 13259 c-103 -24 -207 -97 -255 -177 -24 -42 -27 -56 -27 -142 0 -88 2 -100 36 -170 47 -100 128 -187 216 -233 159 -83 352 -97 496 -35 26 11 49 19 51 17 3 -2 19 -78 36 -169 18 -91 61 -284 96 -430 35 -146 75 -321 90 -390 14 -69 39 -176 55 -238 34 -133 33 -122 13 -122 -8 0 -113 -27 -232 -61 -719 -201 -1726 -469 -1764 -469 -21 0 -19 -6 -157 550 -60 245 -135 537 -167 650 -59 215 -156 629 -180 765 -41 241 -242 445 -495 504 -169 40 -353 51 -436 26 -59 -17 -133 -79 -157 -130 -77 -162 -4 -391 188 -588 74 -76 127 -106 246 -137 179 -47 337 -46 446 4 l53 24 17 -76 c25 -117 68 -287 124 -492 28 -102 100 -385 161 -630 60 -245 121 -479 134 -520 14 -41 27 -104 29 -140 11 -150 25 -180 94 -199 68 -19 297 33 996 229 121 34 345 90 499 126 305 70 392 93 603 160 84 26 160 44 188 44 61 0 106 39 106 92 0 44 -29 179 -75 343 -19 71 -52 204 -71 295 -20 91 -60 262 -89 380 -30 118 -72 310 -94 426 -28 144 -54 245 -80 316 -22 58 -49 143 -61 189 -19 79 -24 87 -81 144 -33 33 -68 72 -77 87 -9 16 -20 28 -24 28 -4 0 -35 21 -70 48 -77 58 -144 88 -229 101 -74 12 -99 12 -152 0z"/><path id="pkjWerxQD" d="M7835 4939 c-581 -32 -1143 -330 -1489 -789 -441 -585 -516 -1326 -199 -1968 329 -666 1023 -1090 1788 -1092 447 -1 919 166 1274 450 396 317 650 766 716 1268 78 588 -163 1218 -620 1624 -402 359 -919 537 -1470 507z m370 -224 c387 -52 731 -216 1003 -479 210 -204 346 -416 432 -675 139 -418 113 -848 -75 -1247 -206 -437 -591 -770 -1066 -922 -438 -141 -948 -108 -1354 87 -199 95 -347 201 -500 356 -571 580 -641 1473 -167 2145 85 121 288 325 412 413 112 80 358 204 485 246 106 34 259 68 365 80 121 14 347 12 465 -4z"/><path id="pFuTEbkfz" d="M7815 4430 c-106 -16 -142 -56 -130 -146 5 -41 3 -55 -7 -58 -148 -44 -229 -74 -303 -110 l-90 -45 -35 38 c-19 21 -44 54 -55 72 -26 44 -84 73 -127 63 -20 -4 -58 -31 -98 -68 -71 -68 -128 -116 -295 -251 -130 -105 -141 -118 -156 -169 -9 -32 -7 -47 7 -85 20 -54 129 -167 188 -195 26 -12 36 -23 33 -34 -3 -10 -16 -55 -30 -102 -14 -47 -28 -107 -32 -133 -8 -53 -7 -52 -102 -36 -58 10 -67 9 -111 -12 -37 -19 -52 -35 -71 -73 l-25 -49 22 -176 c12 -97 27 -239 33 -315 16 -215 48 -277 162 -311 61 -18 214 -12 285 12 l44 14 53 -58 c43 -47 51 -61 43 -76 -15 -29 -78 -260 -78 -287 1 -40 35 -105 70 -130 39 -28 302 -158 392 -193 81 -33 125 -34 168 -4 54 36 70 67 93 180 19 94 24 106 40 101 10 -3 48 -9 84 -12 l66 -7 48 -123 c63 -161 80 -187 133 -207 43 -16 44 -16 147 19 57 20 167 50 244 67 143 32 197 52 227 86 25 28 48 88 48 126 0 58 -30 139 -64 173 l-33 33 83 56 c46 31 113 84 150 119 l68 62 107 -72 c59 -39 119 -74 134 -78 37 -9 95 21 119 62 16 28 115 252 232 522 29 67 30 105 4 147 -26 44 -63 61 -177 80 l-98 17 3 149 c3 147 4 150 30 179 17 18 49 34 86 45 45 13 62 23 77 47 25 41 24 71 -7 136 -15 30 -68 147 -120 260 -139 303 -181 356 -273 347 -57 -6 -90 -32 -122 -93 l-25 -50 -50 44 c-58 52 -236 172 -281 191 -37 15 -38 22 -22 121 16 100 8 125 -52 156 -32 16 -80 28 -132 34 -95 11 -449 11 -522 0z m288 -289 c269 -30 512 -146 701 -335 187 -187 297 -420 322 -687 14 -141 -4 -300 -40 -353 -28 -42 -48 -99 -71 -203 -34 -150 -196 -349 -394 -482 -158 -107 -341 -171 -559 -196 -128 -15 -149 -15 -258 0 -295 40 -513 144 -705 335 -226 225 -331 489 -324 812 5 193 45 350 131 507 79 144 228 308 362 400 141 96 326 169 477 190 159 22 220 29 245 25 14 -2 64 -8 113 -13z"/><path id="pMmxG7YTl" d="M17495 8948 c-275 -16 -524 -26 -553 -23 -150 15 -245 -86 -164 -175 25 -29 34 -32 122 -40 59 -6 120 -5 160 1 36 5 250 18 475 29 502 25 501 24 537 60 40 41 40 101 -2 140 -16 15 -40 29 -52 32 -13 2 -248 -9 -523 -24z"/><path id="pObY0SUx0" d="M16185 8884 c-5 -2 -304 -17 -664 -34 -513 -24 -662 -34 -686 -46 -76 -36 -78 -141 -3 -180 28 -15 83 -14 742 15 391 18 731 36 756 42 117 26 131 149 23 195 -29 13 -143 18 -168 8z"/><path id="py148jKXB" d="M17301 7020 c-172 -29 -204 -42 -229 -94 -29 -58 29 -136 100 -136 18 0 114 14 212 30 189 30 219 42 244 94 18 37 7 80 -30 111 -38 32 -81 32 -297 -5z"/><path id="p14Nzk54sd" d="M16445 6969 c-427 -34 -1476 -108 -2040 -144 -308 -19 -575 -38 -594 -41 -112 -18 -123 -173 -14 -200 49 -13 2838 175 2993 202 47 7 76 28 95 65 21 39 6 90 -35 119 -35 25 -84 25 -405 -1z"/><path id="p9DOFYi7M" d="M17924 4945 c-89 -38 -83 -154 10 -185 93 -30 166 87 99 159 -34 36 -68 44 -109 26z"/><path id="pgHoEvJ82" d="M16575 4829 c-555 -48 -1025 -91 -1044 -94 -50 -9 -91 -55 -91 -100 0 -49 53 -105 100 -105 74 0 2128 181 2162 190 47 13 78 52 78 97 0 71 -44 104 -137 102 -32 -1 -512 -41 -1068 -90z"/></g></g></svg>